<?xml version="1.0" encoding="UTF-8"?>
<svg xmlns="http://www.w3.org/2000/svg" xmlns:xlink="http://www.w3.org/1999/xlink" width="128pt" height="128pt" viewBox="0 0 128 128" version="1.1">
<g id="surface18071548">
<path style=" stroke:none;fill-rule:nonzero;fill:rgb(20.392157%,59.607843%,85.882353%);fill-opacity:1;" d="M 62 6 C 31.070312 6 6 31.070312 6 62 C 6 92.929688 31.070312 118 62 118 C 92.929688 118 118 92.929688 118 62 C 118 31.070312 92.929688 6 62 6 Z M 62 6 "/>
<path style=" stroke:none;fill-rule:nonzero;fill:rgb(97.647059%,89.019608%,68.235294%);fill-opacity:1;" d="M 62 6 C 31.070312 6 6 31.070312 6 62 C 6 92.929688 31.070312 118 62 118 C 92.929688 118 118 92.929688 118 62 C 118 31.070312 92.929688 6 62 6 Z M 62 106 C 42.21875 106.003906 24.863281 92.804688 19.585938 73.738281 C 14.308594 54.671875 22.40625 34.425781 39.375 24.257812 C 56.34375 14.089844 78.015625 16.496094 92.339844 30.140625 L 93.699219 31.480469 C 94.21875 32.011719 94.71875 32.558594 95.199219 33.121094 C 106.515625 46.128906 109.195312 64.550781 102.046875 80.242188 C 94.898438 95.933594 79.242188 106 62 106 Z M 62 106 "/>
<path style=" stroke:none;fill-rule:nonzero;fill:rgb(96.470588%,82.745098%,59.215686%);fill-opacity:1;" d="M 62 106 C 37.699219 106 18 86.300781 18 62 L 14.679688 62 C 12.304688 61.992188 10.050781 63.039062 8.523438 64.859375 C 6.996094 66.679688 6.359375 69.082031 6.78125 71.421875 C 11.351562 98.347656 34.679688 118.046875 61.988281 118.046875 C 89.300781 118.046875 112.628906 98.347656 117.199219 71.421875 C 117.621094 69.085938 116.984375 66.6875 115.464844 64.867188 C 113.941406 63.046875 111.691406 61.996094 109.320312 62 L 106 62 C 106 86.300781 86.300781 106 62 106 Z M 62 106 "/>
<path style=" stroke:none;fill-rule:nonzero;fill:rgb(55.294118%,42.352941%,62.352941%);fill-opacity:1;" d="M 62 4 C 29.96875 4 4 29.96875 4 62 C 4 94.03125 29.96875 120 62 120 C 94.03125 120 120 94.03125 120 62 C 120 29.96875 94.03125 4 62 4 Z M 62 116 C 32.175781 116 8 91.824219 8 62 C 8 32.175781 32.175781 8 62 8 C 91.824219 8 116 32.175781 116 62 C 116 91.824219 91.824219 116 62 116 Z M 62 116 "/>
<path style=" stroke:none;fill-rule:nonzero;fill:rgb(55.294118%,42.352941%,62.352941%);fill-opacity:1;" d="M 62 100 C 60.894531 100 60 100.894531 60 102 L 60 106 C 60 107.105469 60.894531 108 62 108 C 63.105469 108 64 107.105469 64 106 L 64 102 C 64 100.894531 63.105469 100 62 100 Z M 74 100.160156 C 73.683594 99.128906 72.609375 98.535156 71.566406 98.816406 C 70.527344 99.09375 69.894531 100.148438 70.140625 101.199219 L 71.179688 105.058594 C 71.472656 106.132812 72.578125 106.761719 73.648438 106.46875 C 74.722656 106.175781 75.351562 105.070312 75.058594 104 Z M 43.5 95.039062 C 43.039062 94.773438 42.492188 94.699219 41.976562 94.839844 C 41.460938 94.980469 41.023438 95.316406 40.761719 95.78125 L 38.761719 99.238281 C 38.261719 100.191406 38.601562 101.363281 39.53125 101.898438 C 40.460938 102.433594 41.644531 102.144531 42.21875 101.238281 L 44.21875 97.78125 C 44.488281 97.320312 44.5625 96.773438 44.429688 96.261719 C 44.292969 95.746094 43.960938 95.308594 43.5 95.039062 Z M 83.238281 95.78125 C 82.664062 94.875 81.480469 94.585938 80.550781 95.121094 C 79.625 95.65625 79.28125 96.832031 79.78125 97.78125 L 81.78125 101.238281 C 82.121094 101.890625 82.789062 102.304688 83.523438 102.3125 C 84.257812 102.324219 84.941406 101.929688 85.296875 101.289062 C 85.65625 100.644531 85.632812 99.859375 85.238281 99.238281 Z M 52.421875 98.738281 C 51.355469 98.460938 50.261719 99.09375 49.980469 100.160156 L 48.941406 104 C 48.726562 104.699219 48.910156 105.457031 49.421875 105.980469 C 49.929688 106.503906 50.683594 106.710938 51.390625 106.511719 C 52.09375 106.316406 52.632812 105.75 52.800781 105.039062 L 53.839844 101.179688 C 54.121094 100.113281 53.484375 99.023438 52.421875 98.738281 Z M 52.421875 98.738281 "/>
<path style=" stroke:none;fill-rule:nonzero;fill:rgb(98.039216%,93.72549%,87.058824%);fill-opacity:1;" d="M 84.578125 44.578125 L 56 73.179688 L 41.421875 58.601562 C 40.625 57.921875 39.445312 57.964844 38.703125 58.703125 C 37.964844 59.445312 37.921875 60.625 38.601562 61.421875 L 54.601562 77.421875 C 55.378906 78.195312 56.640625 78.195312 57.421875 77.421875 L 87.421875 47.421875 C 88.097656 46.625 88.054688 45.445312 87.316406 44.703125 C 86.578125 43.964844 85.394531 43.921875 84.601562 44.601562 Z M 84.578125 44.578125 "/>
<path style=" stroke:none;fill-rule:nonzero;fill:rgb(55.294118%,42.352941%,62.352941%);fill-opacity:1;" d="M 76.699219 22.640625 C 78.132812 23.175781 79.535156 23.789062 80.898438 24.480469 C 81.179688 24.621094 81.488281 24.699219 81.800781 24.699219 C 82.722656 24.695312 83.519531 24.058594 83.734375 23.164062 C 83.945312 22.265625 83.519531 21.339844 82.699219 20.921875 C 81.203125 20.167969 79.667969 19.5 78.101562 18.921875 C 77.085938 18.605469 76.003906 19.136719 75.632812 20.128906 C 75.261719 21.121094 75.730469 22.230469 76.699219 22.660156 Z M 32.300781 32.300781 C 41.847656 22.789062 55.371094 18.417969 68.679688 20.539062 C 69.785156 20.714844 70.824219 19.964844 71 18.859375 C 71.175781 17.753906 70.425781 16.714844 69.320312 16.539062 C 49.597656 13.332031 30.0625 23.226562 20.972656 41.019531 C 11.882812 58.8125 15.320312 80.441406 29.480469 94.539062 C 30.273438 95.21875 31.457031 95.175781 32.195312 94.433594 C 32.933594 93.695312 32.980469 92.511719 32.300781 91.71875 C 24.417969 83.84375 19.988281 73.15625 19.988281 62.011719 C 19.988281 50.867188 24.417969 40.175781 32.300781 32.300781 Z M 94.519531 29.480469 C 93.203125 28.15625 91.808594 26.914062 90.339844 25.761719 C 89.785156 25.253906 88.996094 25.101562 88.292969 25.363281 C 87.589844 25.628906 87.09375 26.261719 87.007812 27.007812 C 86.917969 27.75 87.257812 28.484375 87.878906 28.898438 C 89.21875 29.957031 90.496094 31.089844 91.699219 32.300781 C 99.578125 40.175781 104.003906 50.859375 104.003906 62 C 104.003906 73.140625 99.578125 83.824219 91.699219 91.699219 C 91.128906 92.1875 90.878906 92.957031 91.054688 93.6875 C 91.230469 94.417969 91.800781 94.988281 92.53125 95.164062 C 93.265625 95.339844 94.03125 95.089844 94.519531 94.519531 C 112.476562 76.558594 112.476562 47.441406 94.519531 29.480469 Z M 94.519531 29.480469 "/>
</g>
</svg>
